<svg id="vuesax_bold_gallery-favorite" data-name="vuesax/bold/gallery-favorite" xmlns="http://www.w3.org/2000/svg" width="36" height="36" viewBox="0 0 36 36">
  <g id="gallery-favorite">
    <path id="Vector" d="M7.14,3.57A3.57,3.57,0,1,1,3.57,0,3.57,3.57,0,0,1,7.14,3.57Z" transform="translate(9.93 8.43)" fill="#ff824a"/>
    <path id="Vector-2" data-name="Vector" d="M28.455,9h-.7v6.915l-.195-.165a3.344,3.344,0,0,0-4.23,0L17.085,21.1a3.344,3.344,0,0,1-4.23,0l-.51-.42a3.331,3.331,0,0,0-3.96-.21L2.775,24.24a8,8,0,0,1-.525-2.955V8.715c0-4.23,2.235-6.465,6.465-6.465H21V1.545A3.134,3.134,0,0,1,21.345,0H8.715C3.255,0,0,3.255,0,8.715v12.57a10.085,10.085,0,0,0,.84,4.26C2.13,28.4,4.89,30,8.715,30h12.57C26.745,30,30,26.745,30,21.285V8.655A3.134,3.134,0,0,1,28.455,9Z" transform="translate(3 3)" fill="#ff824a"/>
    <path id="Vector-3" data-name="Vector" d="M0,0H36V36H0Z" fill="none" opacity="0"/>
    <path id="Vector-4" data-name="Vector" d="M7.455,0H3.045a2.746,2.746,0,0,0-2.7,1.5A3.134,3.134,0,0,0,0,3.045v4.41A2.8,2.8,0,0,0,3.045,10.5h4.41A3.134,3.134,0,0,0,9,10.155a2.746,2.746,0,0,0,1.5-2.7V3.045A2.8,2.8,0,0,0,7.455,0ZM6.45,7.815a2.784,2.784,0,0,1-1.2.435A4.2,4.2,0,0,1,2.085,5.52a2.754,2.754,0,0,1-.135-.855,2.518,2.518,0,0,1,.105-.75A2.2,2.2,0,0,1,3.5,2.34a1.851,1.851,0,0,1,.9-.06,1.818,1.818,0,0,1,.84.36,1.939,1.939,0,0,1,1.77-.3,2.477,2.477,0,0,1,1.41,3.18,3.254,3.254,0,0,1-.225.525A4.3,4.3,0,0,1,6.45,7.815Z" transform="translate(24 1.5)" fill="#ff824a"/>
  </g>
</svg>
