<svg xmlns="http://www.w3.org/2000/svg" width="26.003" height="26.003" viewBox="0 0 26.003 26.003">
  <g id="vuesax_bold_send-2" data-name="vuesax/bold/send-2" transform="translate(-300 -316)">
    <g id="send-2" transform="translate(300 316)">
      <path id="Vector" d="M14.716.43,4.932,3.68c-6.577,2.2-6.577,5.786,0,7.974l2.9.964.964,2.9c2.189,6.577,5.786,6.577,7.974,0l3.261-9.773C21.487,1.361,19.1-1.033,14.716.43Zm.347,5.829L10.946,10.4a.811.811,0,0,1-1.148,0,.817.817,0,0,1,0-1.148L13.914,5.11a.812.812,0,0,1,1.148,1.148Z" transform="translate(2.771 2.777)" fill="#fff"/>
      <path id="Vector-2" data-name="Vector" d="M0,0H26V26H0Z" transform="translate(26.003 26.003) rotate(180)" fill="none" opacity="0"/>
    </g>
  </g>
</svg>
