<svg xmlns="http://www.w3.org/2000/svg" width="37.135" height="37.135" viewBox="0 0 37.135 37.135">
  <g id="vuesax_bold_paintbucket" data-name="vuesax/bold/paintbucket" transform="translate(-492 -188)">
    <g id="paintbucket" transform="translate(492 188)">
      <path id="Vector" d="M28.018,8.466,22.572,3.019c-4.889-4.874-7.458-3.079-10.552,0L3.262,11.777C1.482,13.556.508,14.7.152,15.97a.015.015,0,0,1-.015.015v.077c-.634,2.259,1.037,4.178,3.125,6.266L8.724,27.76c1.95,1.965,3.528,3.187,5.276,3.187s3.249-1.176,5.261-3.187l8.758-8.742a17.587,17.587,0,0,0,1.748-2.011v-.015h.015C31.763,14.222,31.236,11.669,28.018,8.466ZM26.424,14.5h-.015c-.464-.108-.944-.2-1.423-.294-.031,0-.062-.015-.108-.015q-1.625-.3-3.3-.511H21.52c-1.114-.139-2.244-.248-3.373-.309h-.124c-.99-.062-2-.093-2.986-.093-1.207,0-2.414.062-3.605.139l-.572.046c-.9.062-1.795.155-2.677.263-.248.031-.48.062-.712.093-.9.139-1.779.279-2.661.449-.2.046-.387.077-.588.108l-.248.046c.279-.309.6-.634.959-.99L13.675,4.69c2.816-2.785,3.775-3.45,7.241,0l5.431,5.446a10.02,10.02,0,0,1,1.733,2.12.015.015,0,0,0,.015.015A1.538,1.538,0,0,1,26.424,14.5Z" transform="translate(1.55 3.092)" fill="#ff58f9"/>
      <path id="Vector-2" data-name="Vector" d="M6.106,1.346A2.676,2.676,0,0,0,3.862,0,2.629,2.629,0,0,0,1.634,1.346,6.4,6.4,0,0,0,.04,6.158,3.66,3.66,0,0,0,3.862,9.284,3.66,3.66,0,0,0,7.684,6.143,6.353,6.353,0,0,0,6.106,1.346Z" transform="translate(26.31 24.756)" fill="#ff58f9"/>
      <path id="Vector-3" data-name="Vector" d="M0,0H37.135V37.135H0Z" fill="none" opacity="0"/>
    </g>
  </g>
</svg>
