<svg xmlns="http://www.w3.org/2000/svg" width="39.875" height="39.875" viewBox="0 0 39.875 39.875">
  <g id="vuesax_bold_mirroring-screen" data-name="vuesax/bold/mirroring-screen" transform="translate(-232 -382)">
    <g id="mirroring-screen" transform="translate(232 382)">
      <path id="Vector" d="M0,0H39.875V39.875H0Z" fill="none" opacity="0"/>
      <path id="Vector-2" data-name="Vector" d="M24.922,0H8.307A8.31,8.31,0,0,0,0,8.307V21.6a8.31,8.31,0,0,0,8.307,8.307H24.922A8.31,8.31,0,0,0,33.229,21.6V8.307A8.31,8.31,0,0,0,24.922,0ZM14.106,22.945c-.05,0-.1.017-.166.017a1.251,1.251,0,0,1-1.229-1.08,3.536,3.536,0,0,0-3.14-3.14,1.248,1.248,0,1,1,.316-2.476,6.07,6.07,0,0,1,5.3,5.3A1.245,1.245,0,0,1,14.106,22.945Zm5.067-.847c-.05,0-.1.017-.166.017a1.251,1.251,0,0,1-1.229-1.08,8.322,8.322,0,0,0-7.36-7.36,1.248,1.248,0,1,1,.316-2.476,10.76,10.76,0,0,1,9.52,9.52A1.255,1.255,0,0,1,19.173,22.1Zm4.486-1.445c-.05,0-.1.017-.166.017a1.251,1.251,0,0,1-1.229-1.08A11.737,11.737,0,0,0,11.846,9.171,1.248,1.248,0,0,1,12.162,6.7,14.207,14.207,0,0,1,24.739,19.273,1.236,1.236,0,0,1,23.659,20.652Z" transform="translate(3.323 4.984)" fill="#560eff"/>
    </g>
  </g>
</svg>
