<svg id="vuesax_bold_brush" data-name="vuesax/bold/brush" xmlns="http://www.w3.org/2000/svg" width="36" height="36" viewBox="0 0 36 36">
  <g id="brush">
    <path id="Vector" d="M21.285,0H8.715C3.255,0,0,3.255,0,8.715V21.27C0,26.745,3.255,30,8.715,30H21.27c5.46,0,8.715-3.255,8.715-8.715V8.715C30,3.255,26.745,0,21.285,0Zm-8.55,22.08a3.39,3.39,0,0,1-2.01.96L8.7,23.265a1.766,1.766,0,0,1-1.935-1.95l.225-2.04a3.36,3.36,0,0,1,3.315-3,2.772,2.772,0,0,1,.495.015,3.413,3.413,0,0,1,1.95.975,3.278,3.278,0,0,1,.96,1.89c.015.165.03.33.03.48A3.4,3.4,0,0,1,12.735,22.08ZM23.16,8.325a28.556,28.556,0,0,1-5.91,8.55,4.949,4.949,0,0,0-4.2-4.11,28.776,28.776,0,0,1,8.6-5.97,1.167,1.167,0,0,1,1.515,1.53Z" transform="translate(3 3)" fill="#00b9ff"/>
    <path id="Vector-2" data-name="Vector" d="M0,0H36V36H0Z" fill="none" opacity="0"/>
  </g>
</svg>
