<svg id="vuesax_bold_video-square" data-name="vuesax/bold/video-square" xmlns="http://www.w3.org/2000/svg" width="35.088" height="35.088" viewBox="0 0 35.088 35.088">
  <g id="video-square">
    <path id="Vector" d="M20.746,0H8.494C3.173,0,0,3.173,0,8.494V20.731c0,5.336,3.173,8.509,8.494,8.509H20.731c5.322,0,8.494-3.173,8.494-8.494V8.494C29.24,3.173,26.068,0,20.746,0ZM18.509,17.149l-1.871,1.082-1.871,1.082c-2.412,1.389-4.386.249-4.386-2.529V12.456c0-2.792,1.974-3.918,4.386-2.529l1.871,1.082,1.871,1.082C20.921,13.48,20.921,15.761,18.509,17.149Z" transform="translate(2.924 2.924)" fill="#ff2348"/>
    <path id="Vector-2" data-name="Vector" d="M0,0H35.088V35.088H0Z" fill="none" opacity="0"/>
  </g>
</svg>
